<svg xmlns="http://www.w3.org/2000/svg" xmlns:xlink="http://www.w3.org/1999/xlink" width="500" zoomAndPan="magnify" viewBox="0 0 375 374.999991" height="500" preserveAspectRatio="xMidYMid meet" version="1.0"><defs><g/><clipPath id="225a2f836f"><path d="M 127.21875 100.613281 L 191.917969 100.613281 L 191.917969 214.90625 L 127.21875 214.90625 Z M 127.21875 100.613281 " clip-rule="nonzero"/></clipPath><clipPath id="dee2867c58"><path d="M 163.144531 105.746094 L 246.277344 105.746094 L 246.277344 209.949219 L 163.144531 209.949219 Z M 163.144531 105.746094 " clip-rule="nonzero"/></clipPath><clipPath id="71f374b034"><path d="M 181 85.371094 L 195 85.371094 L 195 99 L 181 99 Z M 181 85.371094 " clip-rule="nonzero"/></clipPath></defs><g clip-path="url(#225a2f836f)"><path fill="#383536" d="M 127.21875 142.402344 C 127.21875 142.402344 154.109375 153.179688 168.148438 145.667969 C 188.011719 135.042969 176.859375 110.722656 187.3125 100.742188 C 187.3125 100.742188 185.390625 113.636719 190.359375 137.175781 C 201.246094 188.777344 151.601562 214.90625 151.601562 214.90625 C 151.601562 214.90625 167.414062 190.808594 158 170.269531 C 150.730469 154.40625 137.300781 156.765625 127.21875 142.402344 " fill-opacity="1" fill-rule="nonzero"/></g><path fill="#383536" d="M 172.394531 133.285156 C 172.394531 138.65625 168.046875 143.003906 162.679688 143.003906 C 157.308594 143.003906 152.960938 138.65625 152.960938 133.285156 C 152.960938 127.917969 157.308594 123.570312 162.679688 123.570312 C 168.046875 123.570312 172.394531 127.917969 172.394531 133.285156 " fill-opacity="1" fill-rule="nonzero"/><path fill="#383536" d="M 160.691406 130.257812 L 172.8125 117.703125 L 155.488281 118.8125 L 143.265625 131.144531 L 145.488281 131.03125 L 147.722656 135.949219 C 147.550781 136.148438 147.496094 136.4375 147.613281 136.695312 C 147.730469 136.953125 147.984375 137.101562 148.25 137.101562 L 148.292969 137.191406 L 149.078125 141.941406 L 150.179688 140.648438 L 151.882812 140.664062 L 148.816406 136.953125 L 148.777344 136.863281 C 148.949219 136.664062 149.003906 136.375 148.886719 136.117188 C 148.769531 135.859375 148.515625 135.707031 148.25 135.707031 L 146.109375 131 L 160.691406 130.257812 " fill-opacity="1" fill-rule="nonzero"/><g clip-path="url(#dee2867c58)"><path fill="#ef9b11" d="M 245.976562 145.113281 C 245.171875 142.632812 242.96875 141.03125 240.359375 141.03125 L 207.644531 141.03125 L 197.535156 109.917969 C 196.730469 107.4375 194.523438 105.835938 191.917969 105.835938 C 190.914062 105.835938 189.972656 106.078125 189.144531 106.511719 C 189.09375 109.601562 189.199219 113.96875 189.765625 119.519531 L 191.917969 112.886719 L 201.773438 143.210938 C 202.566406 145.652344 204.820312 147.292969 207.386719 147.292969 L 239.273438 147.292969 L 213.476562 166.03125 C 211.402344 167.539062 210.539062 170.195312 211.332031 172.632812 L 221.183594 202.960938 L 195.390625 184.21875 C 194.351562 183.464844 193.136719 183.085938 191.917969 183.085938 C 190.703125 183.085938 189.484375 183.464844 188.449219 184.21875 L 183.261719 187.984375 C 181.328125 191.007812 179.148438 193.949219 176.722656 196.800781 C 172.148438 202.175781 167.375 206.453125 163.292969 209.65625 C 164.046875 209.480469 164.78125 209.148438 165.449219 208.664062 L 191.917969 189.433594 L 218.386719 208.664062 C 219.441406 209.429688 220.648438 209.8125 221.859375 209.8125 C 223.066406 209.8125 224.273438 209.429688 225.328125 208.664062 C 227.4375 207.128906 228.277344 204.539062 227.472656 202.058594 L 217.363281 170.945312 L 243.832031 151.714844 C 245.941406 150.183594 246.78125 147.589844 245.976562 145.113281 " fill-opacity="1" fill-rule="nonzero"/></g><path fill="#ffffff" d="M 166.730469 144.175781 C 166.730469 144.175781 173.371094 149.5625 170.867188 160.832031 L 175.441406 162.898438 L 177.398438 157.238281 C 177.398438 157.238281 176.039062 149.128906 168.800781 143.003906 L 166.730469 144.175781 " fill-opacity="1" fill-rule="nonzero"/><g clip-path="url(#71f374b034)"><path fill="#ef9b11" d="M 188.121094 85.371094 L 189.714844 90.273438 L 194.871094 90.273438 L 190.699219 93.300781 L 192.292969 98.203125 L 188.121094 95.175781 L 183.953125 98.203125 L 185.546875 93.300781 L 181.375 90.273438 L 186.53125 90.273438 L 188.121094 85.371094 " fill-opacity="1" fill-rule="nonzero"/></g><g fill="#383536" fill-opacity="1"><g transform="translate(119.706582, 254.26387)"><g><path d="M 20.011719 0.25 C 20.625 0.25 21.777344 0.214844 22.601562 0 L 22.601562 -0.503906 C 22.421875 -0.46875 22.242188 -0.46875 22.0625 -0.46875 C 20.730469 -0.46875 20.335938 -1.332031 18.429688 -6.117188 C 16.519531 -10.90625 15.730469 -12.597656 11.660156 -13.066406 C 16.449219 -13.640625 18.714844 -16.125 18.714844 -19.4375 C 18.714844 -22.351562 17.097656 -25.195312 9.25 -25.195312 L 1.691406 -25.195312 L 1.691406 -24.691406 C 2.878906 -24.296875 3.132812 -23.214844 3.132812 -20.625 L 3.132812 -4.570312 C 3.132812 -1.980469 2.878906 -0.898438 1.691406 -0.503906 L 1.691406 0 L 8.386719 0 L 8.386719 -0.503906 C 7.199219 -0.898438 6.945312 -1.980469 6.945312 -4.570312 L 6.945312 -12.921875 L 9.070312 -12.921875 C 12.238281 -12.921875 12.417969 -11.15625 14.578125 -5.902344 C 16.304688 -1.691406 17.023438 0.25 20.011719 0.25 Z M 6.945312 -13.496094 L 6.945312 -24.511719 C 7.488281 -24.582031 8.027344 -24.617188 8.53125 -24.617188 C 13.027344 -24.617188 14.902344 -21.488281 14.902344 -18.570312 C 14.902344 -15.800781 13.351562 -13.496094 9.25 -13.496094 Z M 6.945312 -13.496094 "/></g></g></g><g fill="#383536" fill-opacity="1"><g transform="translate(140.867342, 254.26387)"><g><path d="M 1.691406 0 L 8.386719 0 L 8.386719 -0.503906 C 7.199219 -0.898438 6.945312 -1.980469 6.945312 -4.570312 L 6.945312 -20.625 C 6.945312 -23.214844 7.199219 -24.296875 8.386719 -24.691406 L 8.386719 -25.195312 L 1.691406 -25.195312 L 1.691406 -24.691406 C 2.878906 -24.296875 3.132812 -23.214844 3.132812 -20.625 L 3.132812 -4.570312 C 3.132812 -1.980469 2.878906 -0.898438 1.691406 -0.503906 Z M 1.691406 0 "/></g></g></g><g fill="#383536" fill-opacity="1"><g transform="translate(149.864062, 254.26387)"><g><path d="M 1.691406 0 L 8.386719 0 L 8.386719 -0.503906 C 7.199219 -0.898438 6.945312 -1.980469 6.945312 -4.570312 L 6.945312 -13.027344 L 19.472656 -13.027344 L 19.472656 -4.570312 C 19.472656 -1.980469 19.21875 -0.898438 18.03125 -0.503906 L 18.03125 0 L 24.726562 0 L 24.726562 -0.503906 C 23.539062 -0.898438 23.289062 -1.980469 23.289062 -4.570312 L 23.289062 -20.625 C 23.289062 -23.214844 23.539062 -24.296875 24.726562 -24.691406 L 24.726562 -25.195312 L 18.03125 -25.195312 L 18.03125 -24.691406 C 19.21875 -24.296875 19.472656 -23.214844 19.472656 -20.625 L 19.472656 -13.675781 L 6.945312 -13.675781 L 6.945312 -20.625 C 6.945312 -23.214844 7.199219 -24.296875 8.386719 -24.691406 L 8.386719 -25.195312 L 1.691406 -25.195312 L 1.691406 -24.691406 C 2.878906 -24.296875 3.132812 -23.214844 3.132812 -20.625 L 3.132812 -4.570312 C 3.132812 -1.980469 2.878906 -0.898438 1.691406 -0.503906 Z M 1.691406 0 "/></g></g></g><g fill="#383536" fill-opacity="1"><g transform="translate(175.199454, 254.26387)"><g><path d="M 1.691406 0 L 18.824219 0 L 19.113281 -4.535156 L 18.644531 -4.605469 C 17.203125 -1.511719 15.332031 -0.648438 11.699219 -0.648438 L 8.746094 -0.648438 C 7.59375 -0.648438 6.945312 -1.296875 6.945312 -2.449219 L 6.945312 -20.625 C 6.945312 -23.214844 7.199219 -24.296875 8.386719 -24.691406 L 8.386719 -25.195312 L 1.691406 -25.195312 L 1.691406 -24.691406 C 2.878906 -24.296875 3.132812 -23.214844 3.132812 -20.625 L 3.132812 -4.570312 C 3.132812 -1.980469 2.878906 -0.898438 1.691406 -0.503906 Z M 1.691406 0 "/></g></g></g><g fill="#383536" fill-opacity="1"><g transform="translate(193.877018, 254.26387)"><g><path d="M -0.753906 0 L 3.417969 0 L 3.417969 -0.503906 C 2.195312 -0.792969 1.980469 -1.835938 2.953125 -4.246094 L 5.039062 -9.394531 L 14.648438 -9.394531 L 16.808594 -4.210938 C 17.816406 -1.835938 18.320312 -0.898438 17.132812 -0.503906 L 17.132812 0 L 23.683594 0 L 23.683594 -0.503906 C 22.855469 -0.898438 21.917969 -1.835938 20.910156 -4.210938 L 11.984375 -25.484375 L 8.457031 -23.898438 L 8.925781 -22.890625 C 9.25 -22.242188 9.285156 -21.667969 9 -20.949219 L 2.265625 -4.246094 C 1.296875 -1.835938 0.324219 -0.898438 -0.753906 -0.503906 Z M 5.253906 -9.96875 L 9.753906 -21.089844 L 14.398438 -9.96875 Z M 5.253906 -9.96875 "/></g></g></g><g fill="#383536" fill-opacity="1"><g transform="translate(215.937471, 254.26387)"><g><path d="M 6.765625 0 L 13.496094 0 L 13.496094 -0.503906 C 12.308594 -0.898438 12.058594 -1.980469 12.058594 -4.570312 L 12.058594 -24.546875 L 13.101562 -24.546875 C 16.304688 -24.546875 17.925781 -23.648438 19.257812 -20.769531 L 19.6875 -20.839844 L 19.472656 -25.195312 L 0.71875 -25.195312 L 0.503906 -20.839844 L 0.9375 -20.769531 C 2.265625 -23.648438 3.886719 -24.546875 7.089844 -24.546875 L 8.207031 -24.546875 L 8.207031 -4.570312 C 8.207031 -1.980469 7.953125 -0.898438 6.765625 -0.503906 Z M 6.765625 0 "/></g></g></g><g fill="#383536" fill-opacity="1"><g transform="translate(235.010903, 254.26387)"><g><path d="M 6.621094 0 L 13.351562 0 L 13.351562 -0.503906 C 12.164062 -0.898438 11.914062 -1.980469 11.914062 -4.570312 L 11.914062 -11.519531 L 17.347656 -21.199219 C 18.609375 -23.46875 19.796875 -24.296875 20.875 -24.691406 L 20.875 -25.195312 L 16.234375 -25.195312 L 16.234375 -24.691406 C 17.707031 -24.402344 17.886719 -23.46875 16.628906 -21.199219 L 11.769531 -12.632812 L 7.019531 -21.199219 C 5.757812 -23.46875 5.039062 -24.296875 6.226562 -24.691406 L 6.226562 -25.195312 L -0.503906 -25.195312 L -0.503906 -24.691406 C 0.324219 -24.296875 1.476562 -23.46875 2.699219 -21.199219 L 8.027344 -11.554688 L 8.0625 -4.570312 C 8.0625 -1.980469 7.808594 -0.898438 6.621094 -0.503906 Z M 6.621094 0 "/></g></g></g><g fill="#383536" fill-opacity="1"><g transform="translate(115.845774, 276.813879)"><g><path d="M 6.3125 -6.96875 L 3.796875 -6.96875 L 3.796875 0 L 2.765625 0 L 2.765625 -6.96875 L 0.265625 -6.96875 L 0.265625 -7.828125 L 6.3125 -7.828125 Z M 6.3125 -6.96875 "/></g></g></g><g fill="#383536" fill-opacity="1"><g transform="translate(131.204548, 276.813879)"><g><path d="M 6.921875 -3.65625 C 6.921875 -2.894531 6.789062 -2.226562 6.53125 -1.65625 C 6.28125 -1.082031 5.914062 -0.644531 5.4375 -0.34375 C 4.96875 -0.0390625 4.414062 0.109375 3.78125 0.109375 C 3.164062 0.109375 2.617188 -0.0390625 2.140625 -0.34375 C 1.671875 -0.644531 1.300781 -1.078125 1.03125 -1.640625 C 0.769531 -2.203125 0.640625 -2.851562 0.640625 -3.59375 L 0.640625 -4.15625 C 0.640625 -4.90625 0.769531 -5.566406 1.03125 -6.140625 C 1.289062 -6.722656 1.660156 -7.164062 2.140625 -7.46875 C 2.617188 -7.769531 3.164062 -7.921875 3.78125 -7.921875 C 4.40625 -7.921875 4.957031 -7.769531 5.4375 -7.46875 C 5.914062 -7.164062 6.28125 -6.726562 6.53125 -6.15625 C 6.789062 -5.582031 6.921875 -4.914062 6.921875 -4.15625 Z M 5.890625 -4.15625 C 5.890625 -5.082031 5.703125 -5.796875 5.328125 -6.296875 C 4.960938 -6.796875 4.445312 -7.046875 3.78125 -7.046875 C 3.125 -7.046875 2.609375 -6.796875 2.234375 -6.296875 C 1.859375 -5.796875 1.664062 -5.109375 1.65625 -4.234375 L 1.65625 -3.65625 C 1.65625 -2.757812 1.84375 -2.050781 2.21875 -1.53125 C 2.601562 -1.019531 3.125 -0.765625 3.78125 -0.765625 C 4.445312 -0.765625 4.960938 -1.003906 5.328125 -1.484375 C 5.691406 -1.972656 5.878906 -2.671875 5.890625 -3.578125 Z M 5.890625 -4.15625 "/></g></g></g><g fill="#383536" fill-opacity="1"><g transform="translate(147.561636, 276.813879)"><g/></g></g><g fill="#ef9b11" fill-opacity="1"><g transform="translate(159.087959, 276.813879)"><g><path d="M 3.21875 -3.484375 C 2.332031 -3.742188 1.6875 -4.054688 1.28125 -4.421875 C 0.875 -4.796875 0.671875 -5.253906 0.671875 -5.796875 C 0.671875 -6.410156 0.914062 -6.914062 1.40625 -7.3125 C 1.90625 -7.71875 2.546875 -7.921875 3.328125 -7.921875 C 3.867188 -7.921875 4.347656 -7.816406 4.765625 -7.609375 C 5.191406 -7.410156 5.519531 -7.125 5.75 -6.75 C 5.976562 -6.382812 6.09375 -5.988281 6.09375 -5.5625 L 5.0625 -5.5625 C 5.0625 -6.03125 4.910156 -6.398438 4.609375 -6.671875 C 4.304688 -6.941406 3.878906 -7.078125 3.328125 -7.078125 C 2.828125 -7.078125 2.429688 -6.960938 2.140625 -6.734375 C 1.859375 -6.515625 1.71875 -6.207031 1.71875 -5.8125 C 1.71875 -5.488281 1.851562 -5.21875 2.125 -5 C 2.394531 -4.78125 2.851562 -4.578125 3.5 -4.390625 C 4.15625 -4.210938 4.664062 -4.015625 5.03125 -3.796875 C 5.394531 -3.578125 5.664062 -3.316406 5.84375 -3.015625 C 6.019531 -2.722656 6.109375 -2.378906 6.109375 -1.984375 C 6.109375 -1.347656 5.859375 -0.835938 5.359375 -0.453125 C 4.867188 -0.078125 4.210938 0.109375 3.390625 0.109375 C 2.847656 0.109375 2.34375 0.00390625 1.875 -0.203125 C 1.414062 -0.410156 1.0625 -0.691406 0.8125 -1.046875 C 0.5625 -1.398438 0.4375 -1.804688 0.4375 -2.265625 L 1.46875 -2.265625 C 1.46875 -1.796875 1.640625 -1.421875 1.984375 -1.140625 C 2.335938 -0.867188 2.804688 -0.734375 3.390625 -0.734375 C 3.929688 -0.734375 4.347656 -0.84375 4.640625 -1.0625 C 4.929688 -1.289062 5.078125 -1.59375 5.078125 -1.96875 C 5.078125 -2.351562 4.941406 -2.648438 4.671875 -2.859375 C 4.398438 -3.078125 3.914062 -3.285156 3.21875 -3.484375 Z M 3.21875 -3.484375 "/></g></g></g><g fill="#ef9b11" fill-opacity="1"><g transform="translate(174.409162, 276.813879)"><g><path d="M 6.40625 -7.828125 L 6.40625 -2.5 C 6.40625 -1.757812 6.175781 -1.15625 5.71875 -0.6875 C 5.257812 -0.21875 4.632812 0.0390625 3.84375 0.09375 L 3.578125 0.109375 C 2.710938 0.109375 2.023438 -0.117188 1.515625 -0.578125 C 1.015625 -1.046875 0.757812 -1.6875 0.75 -2.5 L 0.75 -7.828125 L 1.765625 -7.828125 L 1.765625 -2.53125 C 1.765625 -1.957031 1.921875 -1.515625 2.234375 -1.203125 C 2.546875 -0.890625 2.992188 -0.734375 3.578125 -0.734375 C 4.160156 -0.734375 4.601562 -0.890625 4.90625 -1.203125 C 5.21875 -1.515625 5.375 -1.953125 5.375 -2.515625 L 5.375 -7.828125 Z M 6.40625 -7.828125 "/></g></g></g><g fill="#ef9b11" fill-opacity="1"><g transform="translate(190.336867, 276.813879)"><g><path d="M 6.65625 -2.484375 C 6.5625 -1.648438 6.253906 -1.007812 5.734375 -0.5625 C 5.222656 -0.113281 4.546875 0.109375 3.703125 0.109375 C 2.773438 0.109375 2.03125 -0.21875 1.46875 -0.875 C 0.914062 -1.539062 0.640625 -2.429688 0.640625 -3.546875 L 0.640625 -4.296875 C 0.640625 -5.023438 0.769531 -5.664062 1.03125 -6.21875 C 1.289062 -6.769531 1.65625 -7.191406 2.125 -7.484375 C 2.601562 -7.773438 3.15625 -7.921875 3.78125 -7.921875 C 4.613281 -7.921875 5.28125 -7.6875 5.78125 -7.21875 C 6.28125 -6.757812 6.570312 -6.125 6.65625 -5.3125 L 5.625 -5.3125 C 5.53125 -5.925781 5.332031 -6.375 5.03125 -6.65625 C 4.738281 -6.9375 4.320312 -7.078125 3.78125 -7.078125 C 3.125 -7.078125 2.609375 -6.832031 2.234375 -6.34375 C 1.859375 -5.863281 1.671875 -5.171875 1.671875 -4.265625 L 1.671875 -3.515625 C 1.671875 -2.660156 1.847656 -1.984375 2.203125 -1.484375 C 2.554688 -0.984375 3.054688 -0.734375 3.703125 -0.734375 C 4.273438 -0.734375 4.710938 -0.863281 5.015625 -1.125 C 5.316406 -1.382812 5.519531 -1.835938 5.625 -2.484375 Z M 6.65625 -2.484375 "/></g></g></g><g fill="#ef9b11" fill-opacity="1"><g transform="translate(206.291409, 276.813879)"><g><path d="M 6.65625 -2.484375 C 6.5625 -1.648438 6.253906 -1.007812 5.734375 -0.5625 C 5.222656 -0.113281 4.546875 0.109375 3.703125 0.109375 C 2.773438 0.109375 2.03125 -0.21875 1.46875 -0.875 C 0.914062 -1.539062 0.640625 -2.429688 0.640625 -3.546875 L 0.640625 -4.296875 C 0.640625 -5.023438 0.769531 -5.664062 1.03125 -6.21875 C 1.289062 -6.769531 1.65625 -7.191406 2.125 -7.484375 C 2.601562 -7.773438 3.15625 -7.921875 3.78125 -7.921875 C 4.613281 -7.921875 5.28125 -7.6875 5.78125 -7.21875 C 6.28125 -6.757812 6.570312 -6.125 6.65625 -5.3125 L 5.625 -5.3125 C 5.53125 -5.925781 5.332031 -6.375 5.03125 -6.65625 C 4.738281 -6.9375 4.320312 -7.078125 3.78125 -7.078125 C 3.125 -7.078125 2.609375 -6.832031 2.234375 -6.34375 C 1.859375 -5.863281 1.671875 -5.171875 1.671875 -4.265625 L 1.671875 -3.515625 C 1.671875 -2.660156 1.847656 -1.984375 2.203125 -1.484375 C 2.554688 -0.984375 3.054688 -0.734375 3.703125 -0.734375 C 4.273438 -0.734375 4.710938 -0.863281 5.015625 -1.125 C 5.316406 -1.382812 5.519531 -1.835938 5.625 -2.484375 Z M 6.65625 -2.484375 "/></g></g></g><g fill="#ef9b11" fill-opacity="1"><g transform="translate(222.245951, 276.813879)"><g><path d="M 5.328125 -3.609375 L 1.9375 -3.609375 L 1.9375 -0.84375 L 5.875 -0.84375 L 5.875 0 L 0.90625 0 L 0.90625 -7.828125 L 5.828125 -7.828125 L 5.828125 -6.96875 L 1.9375 -6.96875 L 1.9375 -4.453125 L 5.328125 -4.453125 Z M 5.328125 -3.609375 "/></g></g></g><g fill="#ef9b11" fill-opacity="1"><g transform="translate(237.29342, 276.813879)"><g><path d="M 3.21875 -3.484375 C 2.332031 -3.742188 1.6875 -4.054688 1.28125 -4.421875 C 0.875 -4.796875 0.671875 -5.253906 0.671875 -5.796875 C 0.671875 -6.410156 0.914062 -6.914062 1.40625 -7.3125 C 1.90625 -7.71875 2.546875 -7.921875 3.328125 -7.921875 C 3.867188 -7.921875 4.347656 -7.816406 4.765625 -7.609375 C 5.191406 -7.410156 5.519531 -7.125 5.75 -6.75 C 5.976562 -6.382812 6.09375 -5.988281 6.09375 -5.5625 L 5.0625 -5.5625 C 5.0625 -6.03125 4.910156 -6.398438 4.609375 -6.671875 C 4.304688 -6.941406 3.878906 -7.078125 3.328125 -7.078125 C 2.828125 -7.078125 2.429688 -6.960938 2.140625 -6.734375 C 1.859375 -6.515625 1.71875 -6.207031 1.71875 -5.8125 C 1.71875 -5.488281 1.851562 -5.21875 2.125 -5 C 2.394531 -4.78125 2.851562 -4.578125 3.5 -4.390625 C 4.15625 -4.210938 4.664062 -4.015625 5.03125 -3.796875 C 5.394531 -3.578125 5.664062 -3.316406 5.84375 -3.015625 C 6.019531 -2.722656 6.109375 -2.378906 6.109375 -1.984375 C 6.109375 -1.347656 5.859375 -0.835938 5.359375 -0.453125 C 4.867188 -0.078125 4.210938 0.109375 3.390625 0.109375 C 2.847656 0.109375 2.34375 0.00390625 1.875 -0.203125 C 1.414062 -0.410156 1.0625 -0.691406 0.8125 -1.046875 C 0.5625 -1.398438 0.4375 -1.804688 0.4375 -2.265625 L 1.46875 -2.265625 C 1.46875 -1.796875 1.640625 -1.421875 1.984375 -1.140625 C 2.335938 -0.867188 2.804688 -0.734375 3.390625 -0.734375 C 3.929688 -0.734375 4.347656 -0.84375 4.640625 -1.0625 C 4.929688 -1.289062 5.078125 -1.59375 5.078125 -1.96875 C 5.078125 -2.351562 4.941406 -2.648438 4.671875 -2.859375 C 4.398438 -3.078125 3.914062 -3.285156 3.21875 -3.484375 Z M 3.21875 -3.484375 "/></g></g></g><g fill="#ef9b11" fill-opacity="1"><g transform="translate(252.61462, 276.813879)"><g><path d="M 3.21875 -3.484375 C 2.332031 -3.742188 1.6875 -4.054688 1.28125 -4.421875 C 0.875 -4.796875 0.671875 -5.253906 0.671875 -5.796875 C 0.671875 -6.410156 0.914062 -6.914062 1.40625 -7.3125 C 1.90625 -7.71875 2.546875 -7.921875 3.328125 -7.921875 C 3.867188 -7.921875 4.347656 -7.816406 4.765625 -7.609375 C 5.191406 -7.410156 5.519531 -7.125 5.75 -6.75 C 5.976562 -6.382812 6.09375 -5.988281 6.09375 -5.5625 L 5.0625 -5.5625 C 5.0625 -6.03125 4.910156 -6.398438 4.609375 -6.671875 C 4.304688 -6.941406 3.878906 -7.078125 3.328125 -7.078125 C 2.828125 -7.078125 2.429688 -6.960938 2.140625 -6.734375 C 1.859375 -6.515625 1.71875 -6.207031 1.71875 -5.8125 C 1.71875 -5.488281 1.851562 -5.21875 2.125 -5 C 2.394531 -4.78125 2.851562 -4.578125 3.5 -4.390625 C 4.15625 -4.210938 4.664062 -4.015625 5.03125 -3.796875 C 5.394531 -3.578125 5.664062 -3.316406 5.84375 -3.015625 C 6.019531 -2.722656 6.109375 -2.378906 6.109375 -1.984375 C 6.109375 -1.347656 5.859375 -0.835938 5.359375 -0.453125 C 4.867188 -0.078125 4.210938 0.109375 3.390625 0.109375 C 2.847656 0.109375 2.34375 0.00390625 1.875 -0.203125 C 1.414062 -0.410156 1.0625 -0.691406 0.8125 -1.046875 C 0.5625 -1.398438 0.4375 -1.804688 0.4375 -2.265625 L 1.46875 -2.265625 C 1.46875 -1.796875 1.640625 -1.421875 1.984375 -1.140625 C 2.335938 -0.867188 2.804688 -0.734375 3.390625 -0.734375 C 3.929688 -0.734375 4.347656 -0.84375 4.640625 -1.0625 C 4.929688 -1.289062 5.078125 -1.59375 5.078125 -1.96875 C 5.078125 -2.351562 4.941406 -2.648438 4.671875 -2.859375 C 4.398438 -3.078125 3.914062 -3.285156 3.21875 -3.484375 Z M 3.21875 -3.484375 "/></g></g></g></svg>